<svg width="24" height="24" viewBox="0 0 24 24" fill="none" xmlns="http://www.w3.org/2000/svg">
<g clip-path="url(#clip0_4728_25)">
<path d="M20.3175 4.491C18.7875 3.801 17.1475 3.291 15.4325 3.001C15.4172 2.99806 15.4014 2.99995 15.3872 3.0064C15.3731 3.01285 15.3613 3.02355 15.3535 3.037C15.1435 3.406 14.9095 3.887 14.7455 4.267C12.9266 3.99523 11.0774 3.99523 9.25848 4.267C9.07581 3.84586 8.86983 3.43522 8.64148 3.037C8.63374 3.02338 8.62203 3.01245 8.60792 3.00566C8.5938 2.99887 8.57795 2.99654 8.56248 2.999C6.84848 3.289 5.20848 3.799 3.67748 4.49C3.66431 4.49552 3.65314 4.50494 3.64548 4.517C0.533481 9.092 -0.319519 13.554 0.0994806 17.96C0.100647 17.9708 0.103996 17.9812 0.109326 17.9907C0.114655 18.0001 0.121853 18.0084 0.130481 18.015C1.94687 19.3374 3.97282 20.3448 6.12348 20.995C6.13847 20.9996 6.15451 20.9996 6.16949 20.995C6.18448 20.9903 6.19772 20.9813 6.20748 20.969C6.67028 20.3501 7.08038 19.6934 7.43348 19.006C7.43838 18.9966 7.44121 18.9863 7.44176 18.9757C7.44232 18.9651 7.4406 18.9545 7.43671 18.9446C7.43282 18.9348 7.42686 18.9259 7.41923 18.9185C7.4116 18.9112 7.40248 18.9055 7.39248 18.902C6.74649 18.6587 6.12057 18.3652 5.52048 18.024C5.5097 18.0178 5.50061 18.0091 5.49404 17.9986C5.48746 17.988 5.48361 17.976 5.48281 17.9637C5.48202 17.9513 5.48432 17.9389 5.48949 17.9276C5.49467 17.9163 5.50257 17.9065 5.51248 17.899C5.63848 17.806 5.76448 17.709 5.88448 17.612C5.89528 17.6033 5.90829 17.5977 5.92206 17.596C5.93584 17.5942 5.94983 17.5963 5.96248 17.602C9.88948 19.366 14.1425 19.366 18.0235 17.602C18.0362 17.5959 18.0503 17.5936 18.0643 17.5952C18.0782 17.5968 18.0915 17.6022 18.1025 17.611C18.2225 17.709 18.3475 17.806 18.4745 17.899C18.4845 17.9063 18.4925 17.916 18.4979 17.9272C18.5032 17.9384 18.5057 17.9507 18.5051 17.9631C18.5045 17.9755 18.5008 17.9875 18.4945 17.9982C18.4881 18.0088 18.4791 18.0177 18.4685 18.024C17.8705 18.368 17.2485 18.659 16.5955 18.901C16.5855 18.9046 16.5763 18.9104 16.5687 18.9178C16.561 18.9253 16.5551 18.9343 16.5512 18.9442C16.5473 18.9542 16.5456 18.9648 16.5462 18.9755C16.5467 18.9861 16.5496 18.9965 16.5545 19.006C16.9145 19.693 17.3265 20.347 17.7795 20.968C17.7889 20.9807 17.802 20.9903 17.8171 20.9953C17.8321 21.0003 17.8483 21.0005 17.8635 20.996C20.0178 20.3476 22.0471 19.3398 23.8655 18.015C23.8744 18.0088 23.8818 18.0008 23.8873 17.9915C23.8928 17.9821 23.8963 17.9718 23.8975 17.961C24.3975 12.867 23.0595 8.441 20.3485 4.519C20.3418 4.50625 20.3308 4.49632 20.3175 4.491ZM8.02048 15.277C6.83848 15.277 5.86348 14.208 5.86348 12.897C5.86348 11.585 6.81948 10.517 8.02048 10.517C9.23048 10.517 10.1965 11.594 10.1775 12.897C10.1775 14.209 9.22148 15.277 8.02048 15.277V15.277ZM15.9955 15.277C14.8125 15.277 13.8385 14.208 13.8385 12.897C13.8385 11.585 14.7935 10.517 15.9955 10.517C17.2055 10.517 18.1715 11.594 18.1525 12.897C18.1525 14.209 17.2065 15.277 15.9955 15.277V15.277Z" fill="white"/>
</g>
<defs>
<clipPath id="clip0_4728_25">
<rect width="24" height="24" fill="white"/>
</clipPath>
</defs>
</svg>
