<svg width="591" height="590" viewBox="0 0 591 590" fill="none" xmlns="http://www.w3.org/2000/svg">
<path d="M295.5 5V150C342.563 150 384.389 172.422 410.879 207.165L529.891 124.201C477.149 51.9456 391.807 5 295.5 5Z" fill="#FF5800"/>
<path d="M427.816 235.604C435.966 253.732 440.5 273.836 440.5 295C440.5 310.852 437.956 326.109 433.255 340.387L571.632 383.863C580.637 355.859 585.5 325.997 585.5 295C585.5 250.742 575.586 208.8 557.857 171.273C550.007 154.656 540.624 138.905 529.891 124.201L410.879 207.165C417.552 215.917 423.251 225.45 427.816 235.604Z" fill="#FF6A1C"/>
<path d="M295.5 440C264.608 440 235.972 430.339 212.448 413.874C211.458 413.181 210.476 412.475 209.503 411.757L124.223 529.042C128.088 531.876 132.027 534.616 136.034 537.259C181.786 567.436 236.592 585 295.5 585C424.665 585 534.107 500.556 571.632 383.863L433.255 340.387C414.205 398.238 359.729 440 295.5 440Z" fill="#FF7B35"/>
<path d="M124.223 529.042L209.503 411.757C185.429 393.996 167.045 368.967 157.589 339.909L19.4454 384.102C38.3808 442.812 75.5249 493.343 124.223 529.042Z" fill="#FF945B"/>
<path d="M19.4454 205.898C10.391 233.971 5.5 263.914 5.5 295C5.5 326.086 10.391 356.029 19.4454 384.102L157.589 339.909C152.987 325.769 150.5 310.675 150.5 295C150.5 279.325 152.987 264.231 157.589 250.091L19.4454 205.898Z" fill="#FFA271"/>
<path d="M163.184 235.604C185.872 185.14 236.582 150 295.5 150V5C179.595 5 79.5714 72.9958 33.1427 171.273C27.8663 182.442 23.282 194.002 19.4454 205.898L157.589 250.091C159.2 245.14 161.07 240.306 163.184 235.604Z" fill="#FFB086"/>
<path d="M295.5 5C179.595 5 79.5714 72.9958 33.1427 171.273C27.8663 182.442 23.282 194.002 19.4454 205.898M295.5 5V150M295.5 5C391.807 5 477.149 51.9456 529.891 124.201M295.5 150C236.582 150 185.872 185.14 163.184 235.604C161.07 240.306 159.2 245.14 157.589 250.091M295.5 150C342.563 150 384.389 172.422 410.879 207.165M19.4454 205.898C10.391 233.971 5.5 263.914 5.5 295C5.5 326.086 10.391 356.029 19.4454 384.102M19.4454 205.898L157.589 250.091M157.589 250.091C152.987 264.231 150.5 279.325 150.5 295C150.5 310.675 152.987 325.769 157.589 339.909M433.255 340.387C414.205 398.238 359.729 440 295.5 440C264.608 440 235.972 430.339 212.448 413.874C211.458 413.181 210.476 412.475 209.503 411.757M433.255 340.387C437.956 326.109 440.5 310.852 440.5 295C440.5 273.836 435.966 253.732 427.816 235.604C423.251 225.45 417.552 215.917 410.879 207.165M433.255 340.387L571.632 383.863M571.632 383.863C580.637 355.859 585.5 325.997 585.5 295C585.5 250.742 575.586 208.8 557.857 171.273C550.007 154.656 540.624 138.905 529.891 124.201M571.632 383.863C534.107 500.556 424.665 585 295.5 585C236.592 585 181.786 567.436 136.034 537.259C132.027 534.616 128.088 531.876 124.223 529.042M209.503 411.757L124.223 529.042M209.503 411.757C185.429 393.996 167.045 368.967 157.589 339.909M124.223 529.042C75.5249 493.343 38.3808 442.812 19.4454 384.102M19.4454 384.102L157.589 339.909M410.879 207.165L529.891 124.201" stroke="#F2F2F2" stroke-width="10"/>
</svg>
