<svg width="32" height="32" viewBox="0 0 32 32" fill="none" xmlns="http://www.w3.org/2000/svg">
<g clip-path="url(#clip0_4503_154)">
<path d="M29.3333 6.90675L14.12 22.1334L8.46667 16.4801L10.3467 14.6001L14.12 18.3734L27.4533 5.04008L29.3333 6.90675ZM16 26.6667C10.12 26.6667 5.33333 21.8801 5.33333 16.0001C5.33333 10.1201 10.12 5.33341 16 5.33341C18.0933 5.33341 20.0533 5.94675 21.7067 7.00008L23.64 5.06675C21.3986 3.50437 18.7322 2.66673 16 2.66675C8.64 2.66675 2.66667 8.64008 2.66667 16.0001C2.66667 23.3601 8.64 29.3334 16 29.3334C18.3067 29.3334 20.48 28.7467 22.3733 27.7067L20.3733 25.7067C19.04 26.3201 17.56 26.6667 16 26.6667ZM25.3333 20.0001H21.3333V22.6667H25.3333V26.6667H28V22.6667H32V20.0001H28V16.0001H25.3333V20.0001Z" fill="#04B24E"/>
</g>
<defs>
<clipPath id="clip0_4503_154">
<rect width="32" height="32" fill="white"/>
</clipPath>
</defs>
</svg>
