<svg width="32" height="32" viewBox="0 0 32 32" fill="none" xmlns="http://www.w3.org/2000/svg">
<path d="M9.41333 11.9201L6.66667 10.6667L9.41333 9.41341L10.6667 6.66675L11.92 9.41341L14.6667 10.6667L11.92 11.9201L10.6667 14.6667L9.41333 11.9201ZM10.6667 28.0001L11.92 25.2534L14.6667 24.0001L11.92 22.7467L10.6667 20.0001L9.41333 22.7467L6.66667 24.0001L9.41333 25.2534L10.6667 28.0001ZM5.82667 16.4934L4 17.3334L5.82667 18.1734L6.66667 20.0001L7.50667 18.1734L9.33333 17.3334L7.50667 16.4934L6.66667 14.6667L5.82667 16.4934ZM16 16.0001C16 12.3601 17.44 8.97341 19.6667 6.33341L16 2.66675H25.3333V12.0001L21.5733 8.24008C19.7867 10.4267 18.6667 13.1734 18.6667 16.0001C18.6667 20.4267 21.4667 24.4801 25.3333 26.4267V29.3334C19.88 27.2134 16 21.8001 16 16.0001Z" fill="#04B24E"/>
</svg>
