<svg width="32" height="32" viewBox="0 0 32 32" fill="none" xmlns="http://www.w3.org/2000/svg">
<path d="M16 21.3333L17.8667 19.4666L15.7667 17.3333H21.3333V14.6666H15.7667L17.8667 12.5333L16 10.6666L10.6667 15.9999L16 21.3333ZM6.66667 27.9999C5.93333 27.9999 5.30533 27.7386 4.78267 27.2159C4.26 26.6933 3.99911 26.0657 4 25.3333V6.66659C4 5.93325 4.26133 5.30525 4.784 4.78259C5.30667 4.25992 5.93422 3.99903 6.66667 3.99992H12.2667C12.5556 3.19992 13.0391 2.55547 13.7173 2.06659C14.3956 1.5777 15.1564 1.33325 16 1.33325C16.8444 1.33325 17.6058 1.5777 18.284 2.06659C18.9622 2.55547 19.4453 3.19992 19.7333 3.99992H25.3333C26.0667 3.99992 26.6947 4.26125 27.2173 4.78392C27.74 5.30659 28.0009 5.93414 28 6.66659V25.3333C28 26.0666 27.7387 26.6946 27.216 27.2173C26.6933 27.7399 26.0658 28.0008 25.3333 27.9999H6.66667ZM6.66667 25.3333H25.3333V6.66659H6.66667V25.3333ZM16 5.66659C16.2889 5.66659 16.5276 5.57192 16.716 5.38259C16.9044 5.19325 16.9991 4.95459 17 4.66659C17 4.3777 16.9053 4.13903 16.716 3.95059C16.5267 3.76214 16.288 3.66747 16 3.66659C15.7111 3.66659 15.4724 3.76125 15.284 3.95059C15.0956 4.13992 15.0009 4.37859 15 4.66659C15 4.95547 15.0947 5.19414 15.284 5.38259C15.4733 5.57103 15.712 5.6657 16 5.66659Z" fill="#04B24E"/>
</svg>
