<svg width="40" height="40" viewBox="0 0 40 40" fill="none" xmlns="http://www.w3.org/2000/svg">
<path d="M19.4167 15.5832C19.5833 15.4165 19.7778 15.3332 20 15.3332C20.2222 15.3332 20.4167 15.4165 20.5833 15.5832L25.25 20.2498C25.5 20.4998 25.5628 20.7982 25.4383 21.1448C25.3139 21.4915 25.0567 21.6654 24.6667 21.6665H15.3333C14.9445 21.6665 14.6878 21.4926 14.5633 21.1448C14.4389 20.7971 14.5011 20.4987 14.75 20.2498L19.4167 15.5832ZM20 3.33317C17.6945 3.33317 15.5278 3.77095 13.5 4.6465C11.4722 5.52206 9.70834 6.70928 8.20834 8.20817C6.70834 9.70817 5.52112 11.4721 4.64668 13.4998C3.77223 15.5276 3.33445 17.6943 3.33334 19.9998C3.33334 22.3054 3.77112 24.4721 4.64668 26.4998C5.52223 28.5276 6.70945 30.2915 8.20834 31.7915C9.70834 33.2915 11.4722 34.4787 13.5 35.3532C15.5278 36.2276 17.6945 36.6654 20 36.6665C22.3056 36.6665 24.4722 36.2287 26.5 35.3532C28.5278 34.4776 30.2917 33.2904 31.7917 31.7915C33.2917 30.2915 34.4795 28.5276 35.355 26.4998C36.2306 24.4721 36.6678 22.3054 36.6667 19.9998C36.6667 17.6943 36.2289 15.5276 35.3533 13.4998C34.4778 11.4721 33.2906 9.70817 31.7917 8.20817C30.2917 6.70817 28.5278 5.52039 26.5 4.64484C24.4722 3.76928 22.3056 3.33206 20 3.33317Z" fill="#1267CC"/>
</svg>
