<svg width="32" height="32" viewBox="0 0 32 32" fill="none" xmlns="http://www.w3.org/2000/svg">
<g clip-path="url(#clip0_4503_354)">
<path d="M2.66669 2C2.66669 1.46957 2.8774 0.960859 3.25247 0.585786C3.62755 0.210714 4.13625 0 4.66669 0L14 0C14.5305 0 15.0392 0.210714 15.4142 0.585786C15.7893 0.960859 16 1.46957 16 2V10.6667H4.66669C4.13625 10.6667 3.62755 10.456 3.25247 10.0809C2.8774 9.70581 2.66669 9.1971 2.66669 8.66667V2ZM16 10.6667H27.3334C27.8638 10.6667 28.3725 10.8774 28.7476 11.2525C29.1226 11.6275 29.3334 12.1362 29.3334 12.6667V19.3333C29.3334 19.8638 29.1226 20.3725 28.7476 20.7475C28.3725 21.1226 27.8638 21.3333 27.3334 21.3333H16V10.6667ZM2.66669 23.3333C2.66669 22.8029 2.8774 22.2942 3.25247 21.9191C3.62755 21.544 4.13625 21.3333 4.66669 21.3333H16V30C16 30.5304 15.7893 31.0391 15.4142 31.4142C15.0392 31.7893 14.5305 32 14 32H4.66669C4.13625 32 3.62755 31.7893 3.25247 31.4142C2.8774 31.0391 2.66669 30.5304 2.66669 30V23.3333Z" fill="#04B24E"/>
</g>
<defs>
<clipPath id="clip0_4503_354">
<rect width="32" height="32" fill="white"/>
</clipPath>
</defs>
</svg>
